<?xml version="1.0" standalone="no"?>
<!DOCTYPE svg PUBLIC "-//W3C//DTD SVG 20010904//EN"
 "http://www.w3.org/TR/2001/REC-SVG-20010904/DTD/svg10.dtd">
<svg version="1.0" xmlns="http://www.w3.org/2000/svg"
 width="768.000000pt" height="768.000000pt" viewBox="0 0 768.000000 768.000000"
 preserveAspectRatio="xMidYMid meet">
<metadata>
Created by potrace 1.11, written by Peter Selinger 2001-2013
</metadata>
<g transform="translate(0.000000,768.000000) scale(0.100000,-0.100000)"
fill="#000000" stroke="none">
<path d="M889 7156 c-6 -6 -230 -18 -404 -21 -166 -3 -224 -13 -303 -51 -53
-26 -102 -66 -102 -84 0 -6 -5 -10 -12 -10 -6 0 -8 -3 -5 -7 4 -3 1 -13 -7
-22 -8 -9 -15 -19 -15 -23 -1 -5 -1 -9 -2 -10 0 -2 -2 -10 -4 -18 -2 -8 -6
-28 -10 -45 -14 -62 -15 -255 -21 -2091 -5 -1392 -3 -1896 5 -1935 35 -162
166 -281 322 -293 35 -3 64 -5 64 -6 0 -1 75 -7 175 -15 36 -2 97 -7 135 -11
39 -4 354 -7 702 -7 l631 -1 5 -30 c3 -17 5 -420 6 -896 1 -842 2 -867 22
-950 12 -47 26 -90 31 -97 18 -23 194 48 251 101 15 14 32 26 37 26 4 0 10 4
12 9 2 7 76 72 191 170 25 22 49 43 148 133 46 42 95 86 109 98 14 12 66 59
115 105 50 45 110 100 134 121 24 22 60 55 80 74 21 19 62 57 92 84 53 48 231
211 296 271 18 17 62 57 98 90 36 33 85 78 109 100 23 22 87 81 141 130 55 50
117 107 140 127 22 20 52 47 66 60 42 38 221 202 235 216 7 7 35 23 61 35 l48
21 1280 3 c704 1 1303 4 1330 7 28 3 72 8 98 10 46 5 147 18 232 31 129 20
220 120 230 254 3 41 13 150 21 231 10 98 14 554 19 2160 5 1422 4 1581 -11
1635 -32 120 -118 245 -189 273 -17 7 -62 15 -100 17 -131 8 -200 15 -235 22
-36 8 -6243 16 -6251 9z m1176 -1750 c206 -70 368 -237 411 -423 17 -75 11
-189 -17 -298 -36 -139 -166 -295 -299 -359 -41 -20 -100 -42 -130 -50 -68
-17 -226 -13 -293 8 -119 38 -238 126 -306 228 -26 40 -54 97 -52 106 1 1 -6
16 -14 32 -8 16 -15 32 -14 35 0 3 -3 31 -7 63 -21 166 12 316 96 436 39 56
127 146 143 146 5 0 21 9 36 19 33 24 119 59 163 66 18 4 34 8 36 10 11 10
203 -4 247 -19z m1835 -5 c180 -57 330 -204 389 -379 38 -111 42 -185 17 -307
-8 -40 -47 -128 -79 -178 -44 -69 -152 -177 -177 -177 -5 0 -10 -4 -10 -10 0
-5 -7 -10 -16 -10 -8 0 -22 -7 -31 -15 -8 -8 -19 -13 -24 -10 -5 4 -9 2 -9 -2
0 -8 -68 -32 -110 -40 -31 -6 -115 -16 -125 -15 -229 20 -437 169 -519 372
-33 81 -35 89 -42 137 -17 111 -5 196 38 283 49 100 143 215 218 266 19 13 51
35 70 47 19 13 62 33 95 44 79 28 220 25 315 -6z m1750 20 c65 -14 82 -18 110
-29 14 -5 27 -10 30 -10 7 0 108 -59 126 -74 21 -18 105 -102 126 -127 24 -29
57 -96 74 -150 16 -55 12 -289 -6 -336 -6 -16 -10 -30 -9 -30 1 0 -3 -17 -10
-38 -38 -115 -150 -245 -263 -304 -40 -20 -125 -50 -172 -59 -57 -11 -204 -2
-231 14 -5 4 -15 7 -22 8 -50 8 -189 96 -243 155 -47 50 -70 79 -63 79 3 0 -1
8 -10 18 -13 14 -45 76 -52 102 -1 3 -4 12 -7 20 -17 43 -30 113 -32 166 -2
56 25 211 41 237 4 7 8 14 8 17 0 3 15 31 33 64 109 191 373 319 572 277z"/>
</g>
</svg>
